<svg width="142" height="36" viewBox="0 0 142 36" fill="none" xmlns="http://www.w3.org/2000/svg">
<path fill-rule="evenodd" clip-rule="evenodd" d="M15.5723 17.041L24.4949 12.9965V36C26.7875 35.0263 30.7994 33.3525 33.0887 32.3756V0C27.7807 2.29579 20.9063 5.14518 15.5723 7.45075V17.041Z" fill="#53B15A"/>
<path fill-rule="evenodd" clip-rule="evenodd" d="M17.5164 18.9623L8.5905 23.0068V0C6.30122 0.973677 2.28928 2.64749 0 3.62442V36C5.30801 33.7042 12.1824 30.8548 17.5164 28.5493V18.959V18.9623Z" fill="#134093"/>
<path fill-rule="evenodd" clip-rule="evenodd" d="M48.1624 11.3455H52.246V24.4071H48.1624V16.8L44.5738 24.4071H40.4805V11.3455H44.5738V18.9297L48.1624 11.3455ZM58.1076 11.3455V21.2679H61.1752V11.3455H65.2588V21.2679H68.3198V11.3455H72.4034V24.4071H54.0436V11.3455H58.1141H58.1076ZM80.0495 19.8546H78.8284V24.4071H74.7448V11.3455H78.8284V16.0445H80.0039L82.0783 11.3455H87.2984L83.4786 17.3894H83.4916L87.6859 24.4071H82.1662L80.0495 19.8546ZM94.4854 24.6546C92.4761 24.6546 90.8577 24.0554 89.617 22.8603C88.3763 21.6652 87.7575 20.1053 87.7575 18.1873V17.8486C87.7575 16.5135 88.005 15.3346 88.5 14.3121C88.995 13.2863 89.7179 12.495 90.6688 11.9382C91.6164 11.378 92.7464 11.098 94.049 11.098C95.8824 11.098 97.3348 11.6679 98.3996 12.8076C99.4645 13.9506 99.9953 15.5365 99.9953 17.5783V19.1609H91.8997C92.043 19.8904 92.3622 20.4668 92.8539 20.8836C93.3456 21.3004 93.9806 21.5088 94.7622 21.5088C96.0485 21.5088 97.0579 21.0595 97.7809 20.1607L99.6436 22.3588C99.1356 23.0557 98.4159 23.6158 97.4878 24.0293C96.5565 24.4462 95.5535 24.6513 94.4854 24.6513V24.6546ZM94.0229 14.2405C92.8311 14.2405 92.1212 15.0318 91.8997 16.6144H96.0061V16.3018C96.0224 15.6472 95.8563 15.1392 95.5111 14.781C95.166 14.4228 94.6645 14.2405 94.0229 14.2405ZM113.457 17.9723C113.457 20.0044 112.998 21.6261 112.083 22.8375C111.171 24.0489 109.934 24.6546 108.381 24.6546C107.182 24.6546 106.196 24.2182 105.424 23.339V29.4285H101.35V11.3422H105.157L105.277 12.5471C106.062 11.5767 107.088 11.0947 108.358 11.0947C109.97 11.0947 111.223 11.6874 112.119 12.876C113.011 14.0646 113.461 15.6961 113.461 17.7802V17.9691L113.457 17.9723ZM109.384 17.7216C109.384 15.3998 108.706 14.2405 107.355 14.2405C106.391 14.2405 105.746 14.5856 105.424 15.2793V20.4244C105.775 21.1506 106.43 21.5121 107.378 21.5121C108.677 21.5121 109.345 20.3919 109.38 18.1515V17.7183L109.384 17.7216ZM127.148 24.4103H114.871V21.7498L120.524 15.8133C121.918 14.2242 122.615 12.9672 122.615 12.0326C122.615 11.2771 122.448 10.7007 122.12 10.3034C121.791 9.91265 121.312 9.714 120.683 9.714C120.055 9.714 119.557 9.97777 119.169 10.5053C118.785 11.0329 118.593 11.6874 118.593 12.4755H114.509C114.509 11.4008 114.776 10.4011 115.317 9.48605C115.857 8.57425 116.603 7.85783 117.564 7.34331C118.521 6.82879 119.593 6.57153 120.775 6.57153C122.676 6.57153 124.139 7.0079 125.168 7.88714C126.193 8.76638 126.705 10.0266 126.705 11.6679C126.705 12.3615 126.578 13.0323 126.32 13.6934C126.06 14.3479 125.659 15.0383 125.115 15.7547C124.572 16.4776 123.696 17.4415 122.488 18.6497L120.215 21.2679H127.138V24.4103H127.148ZM139.646 17.5327H141.43V20.6752H139.646V24.4103H135.575V20.6752H128.772L128.535 18.184L135.578 6.8581V6.82228H139.649V17.536L139.646 17.5327ZM132.41 17.5327H135.575V12.1238L135.318 12.5373L132.407 17.536L132.41 17.5327Z" fill="#000003"/>
</svg>
